<?xml version="1.0" encoding="UTF-8"?>
<svg xmlns="http://www.w3.org/2000/svg" xmlns:xlink="http://www.w3.org/1999/xlink" width="30px" height="30px" viewBox="0 0 30 30" version="1.1">
<g id="surface1">
<path style=" stroke:none;fill-rule:nonzero;fill:rgb(8.235294%,49.019608%,76.470588%);fill-opacity:1;" d="M 27.875 29.476562 C 28.765625 29.476562 29.472656 28.757812 29.472656 27.882812 L 29.472656 2.117188 C 29.472656 1.230469 28.753906 0.523438 27.875 0.523438 L 2.113281 0.523438 C 1.234375 0.523438 0.515625 1.242188 0.515625 2.117188 L 0.515625 27.882812 C 0.515625 28.769531 1.234375 29.476562 2.113281 29.476562 Z M 27.875 29.476562 "/>
<path style=" stroke:none;fill-rule:nonzero;fill:rgb(100%,100%,100%);fill-opacity:1;" d="M 20.496094 29.476562 L 20.496094 18.265625 L 24.257812 18.265625 L 24.820312 13.894531 L 20.496094 13.894531 L 20.496094 11.105469 C 20.496094 9.835938 20.84375 8.984375 22.664062 8.984375 L 24.976562 8.984375 L 24.976562 5.0625 C 24.574219 5.003906 23.203125 4.894531 21.605469 4.894531 C 18.269531 4.894531 15.988281 6.925781 15.988281 10.667969 L 15.988281 13.894531 L 12.214844 13.894531 L 12.214844 18.265625 L 15.988281 18.265625 L 15.988281 29.476562 Z M 20.496094 29.476562 "/>
</g>
</svg>
