<svg width="157" height="137" viewBox="0 0 157 137" fill="none" xmlns="http://www.w3.org/2000/svg">
<g opacity="0.8" clip-path="url(#clip0_2234_8808)">
<path d="M5.3356 40.1863C5.3356 41.7057 4.19226 42.8453 2.6678 42.8453C1.14334 42.8453 0 41.7057 0 40.1863C0 38.6669 1.14334 37.5273 2.6678 37.5273C4.19226 37.5273 5.3356 38.7935 5.3356 40.1863Z" fill="white"/>
<path d="M28.0753 40.1863C28.0753 41.7057 26.932 42.8453 25.4075 42.8453C23.8831 42.8453 22.7397 41.7057 22.7397 40.1863C22.7397 38.6669 23.8831 37.5273 25.4075 37.5273C26.805 37.5273 28.0753 38.7935 28.0753 40.1863Z" fill="white"/>
<path d="M50.6881 40.1863C50.6881 41.7057 49.5448 42.8453 48.0203 42.8453C46.4959 42.8453 45.3525 41.7057 45.3525 40.1863C45.3525 38.6669 46.4959 37.5273 48.0203 37.5273C49.5448 37.5273 50.6881 38.7935 50.6881 40.1863Z" fill="white"/>
<path d="M73.4279 40.1863C73.4279 41.7057 72.2845 42.8453 70.7601 42.8453C69.2356 42.8453 68.0923 41.7057 68.0923 40.1863C68.0923 38.6669 69.2356 37.5273 70.7601 37.5273C72.2845 37.5273 73.4279 38.7935 73.4279 40.1863Z" fill="white"/>
<path d="M96.1676 40.1863C96.1676 41.7057 95.0243 42.8453 93.4998 42.8453C91.9754 42.8453 90.832 41.7057 90.832 40.1863C90.832 38.6669 91.9754 37.5273 93.4998 37.5273C94.8972 37.5273 96.1676 38.7935 96.1676 40.1863Z" fill="white"/>
<path d="M118.908 40.1863C118.908 41.7057 117.765 42.8453 116.24 42.8453C114.716 42.8453 113.572 41.7057 113.572 40.1863C113.572 38.6669 114.716 37.5273 116.24 37.5273C117.765 37.5273 118.908 38.7935 118.908 40.1863Z" fill="white"/>
<path d="M141.52 40.1863C141.52 41.7057 140.377 42.8453 138.852 42.8453C137.328 42.8453 136.185 41.7057 136.185 40.1863C136.185 38.6669 137.328 37.5273 138.852 37.5273C140.377 37.5273 141.52 38.7935 141.52 40.1863Z" fill="white"/>
<path d="M5.3356 58.95C5.3356 60.4694 4.19226 61.6089 2.6678 61.6089C1.14334 61.6089 0 60.4694 0 58.95C0 57.4306 1.14334 56.291 2.6678 56.291C4.19226 56.291 5.3356 57.4306 5.3356 58.95Z" fill="white"/>
<path d="M28.0753 58.95C28.0753 60.4694 26.932 61.6089 25.4075 61.6089C23.8831 61.6089 22.7397 60.4694 22.7397 58.95C22.7397 57.4306 23.8831 56.291 25.4075 56.291C26.805 56.291 28.0753 57.4306 28.0753 58.95Z" fill="white"/>
<path d="M50.6881 58.95C50.6881 60.4694 49.5448 61.6089 48.0203 61.6089C46.4959 61.6089 45.3525 60.4694 45.3525 58.95C45.3525 57.4306 46.4959 56.291 48.0203 56.291C49.5448 56.291 50.6881 57.4306 50.6881 58.95Z" fill="white"/>
<path d="M73.4279 58.95C73.4279 60.4694 72.2845 61.6089 70.7601 61.6089C69.2356 61.6089 68.0923 60.4694 68.0923 58.95C68.0923 57.4306 69.2356 56.291 70.7601 56.291C72.2845 56.291 73.4279 57.4306 73.4279 58.95Z" fill="white"/>
<path d="M96.1676 58.95C96.1676 60.4694 95.0243 61.6089 93.4998 61.6089C91.9754 61.6089 90.832 60.4694 90.832 58.95C90.832 57.4306 91.9754 56.291 93.4998 56.291C94.8972 56.291 96.1676 57.4306 96.1676 58.95Z" fill="white"/>
<path d="M118.908 58.95C118.908 60.4694 117.765 61.6089 116.24 61.6089C114.716 61.6089 113.572 60.4694 113.572 58.95C113.572 57.4306 114.716 56.291 116.24 56.291C117.765 56.291 118.908 57.4306 118.908 58.95Z" fill="white"/>
<path d="M141.52 58.95C141.52 60.4694 140.377 61.6089 138.852 61.6089C137.328 61.6089 136.185 60.4694 136.185 58.95C136.185 57.4306 137.328 56.291 138.852 56.291C140.377 56.291 141.52 57.4306 141.52 58.95Z" fill="white"/>
<path d="M5.3356 2.65896C5.3356 4.17837 4.19226 5.31793 2.6678 5.31793C1.14334 5.31793 0 4.17837 0 2.65896C0 1.13956 1.14334 0 2.6678 0C4.19226 0 5.3356 1.13956 5.3356 2.65896Z" fill="white"/>
<path d="M28.0753 2.65896C28.0753 4.17837 26.932 5.31793 25.4075 5.31793C23.8831 5.31793 22.7397 4.17837 22.7397 2.65896C22.7397 1.13956 23.8831 0 25.4075 0C26.805 0 28.0753 1.13956 28.0753 2.65896Z" fill="white"/>
<path d="M50.6881 2.65896C50.6881 4.17837 49.5448 5.31793 48.0203 5.31793C46.4959 5.31793 45.3525 4.17837 45.3525 2.65896C45.3525 1.13956 46.6229 0 48.0203 0C49.5448 0 50.6881 1.13956 50.6881 2.65896Z" fill="white"/>
<path d="M73.4279 2.65896C73.4279 4.17837 72.2845 5.31793 70.7601 5.31793C69.2356 5.31793 68.0923 4.17837 68.0923 2.65896C68.0923 1.13956 69.3627 0 70.7601 0C72.1575 0 73.4279 1.13956 73.4279 2.65896Z" fill="white"/>
<path d="M96.1676 2.65896C96.1676 4.17837 95.0243 5.31793 93.4998 5.31793C91.9754 5.31793 90.832 4.17837 90.832 2.65896C90.832 1.13956 91.9754 0 93.4998 0C94.8972 0 96.1676 1.13956 96.1676 2.65896Z" fill="white"/>
<path d="M118.908 2.65896C118.908 4.17837 117.765 5.31793 116.24 5.31793C114.716 5.31793 113.572 4.17837 113.572 2.65896C113.572 1.13956 114.716 0 116.24 0C117.765 0 118.908 1.13956 118.908 2.65896Z" fill="white"/>
<path d="M141.52 2.65896C141.52 4.17837 140.377 5.31793 138.852 5.31793C137.328 5.31793 136.185 4.17837 136.185 2.65896C136.185 1.13956 137.328 0 138.852 0C140.377 0 141.52 1.13956 141.52 2.65896Z" fill="white"/>
<path d="M5.3356 21.4226C5.3356 22.942 4.19226 24.0816 2.6678 24.0816C1.14334 24.0816 0 22.8154 0 21.4226C0 19.9032 1.14334 18.7637 2.6678 18.7637C4.19226 18.7637 5.3356 19.9032 5.3356 21.4226Z" fill="white"/>
<path d="M28.0753 21.4226C28.0753 22.942 26.932 24.0816 25.4075 24.0816C23.8831 24.0816 22.7397 22.942 22.7397 21.4226C22.7397 19.9032 23.8831 18.7637 25.4075 18.7637C26.805 18.7637 28.0753 19.9032 28.0753 21.4226Z" fill="white"/>
<path d="M50.6881 21.4226C50.6881 22.942 49.5448 24.0816 48.0203 24.0816C46.4959 24.0816 45.3525 22.942 45.3525 21.4226C45.3525 19.9032 46.4959 18.7637 48.0203 18.7637C49.5448 18.7637 50.6881 19.9032 50.6881 21.4226Z" fill="white"/>
<path d="M73.4279 21.4226C73.4279 22.942 72.2845 24.0816 70.7601 24.0816C69.2356 24.0816 68.0923 22.942 68.0923 21.4226C68.0923 19.9032 69.2356 18.7637 70.7601 18.7637C72.2845 18.7637 73.4279 19.9032 73.4279 21.4226Z" fill="white"/>
<path d="M96.1676 21.4226C96.1676 22.942 95.0243 24.0816 93.4998 24.0816C91.9754 24.0816 90.832 22.942 90.832 21.4226C90.832 19.9032 91.9754 18.7637 93.4998 18.7637C94.8972 18.7637 96.1676 19.9032 96.1676 21.4226Z" fill="white"/>
<path d="M118.908 21.4226C118.908 22.942 117.765 24.0816 116.24 24.0816C114.716 24.0816 113.572 22.942 113.572 21.4226C113.572 19.9032 114.716 18.7637 116.24 18.7637C117.765 18.7637 118.908 19.9032 118.908 21.4226Z" fill="white"/>
<path d="M141.52 21.4226C141.52 22.942 140.377 24.0816 138.852 24.0816C137.328 24.0816 136.185 22.942 136.185 21.4226C136.185 19.9032 137.328 18.7637 138.852 18.7637C140.377 18.7637 141.52 19.9032 141.52 21.4226Z" fill="white"/>
<path d="M5.3356 77.7136C5.3356 79.2331 4.19226 80.3726 2.6678 80.3726C1.14334 80.3726 0 79.2331 0 77.7136C0 76.1942 1.14334 75.0547 2.6678 75.0547C4.19226 75.0547 5.3356 76.3209 5.3356 77.7136Z" fill="white"/>
<path d="M28.0753 77.7136C28.0753 79.2331 26.932 80.3726 25.4075 80.3726C23.8831 80.3726 22.7397 79.2331 22.7397 77.7136C22.7397 76.1942 23.8831 75.0547 25.4075 75.0547C26.805 75.0547 28.0753 76.3209 28.0753 77.7136Z" fill="white"/>
<path d="M50.6881 77.7136C50.6881 79.2331 49.5448 80.3726 48.0203 80.3726C46.4959 80.3726 45.3525 79.2331 45.3525 77.7136C45.3525 76.1942 46.4959 75.0547 48.0203 75.0547C49.5448 75.0547 50.6881 76.3209 50.6881 77.7136Z" fill="white"/>
<path d="M73.4279 77.7136C73.4279 79.2331 72.2845 80.3726 70.7601 80.3726C69.2356 80.3726 68.0923 79.2331 68.0923 77.7136C68.0923 76.1942 69.2356 75.0547 70.7601 75.0547C72.2845 75.0547 73.4279 76.3209 73.4279 77.7136Z" fill="white"/>
<path d="M96.1676 77.7136C96.1676 79.2331 95.0243 80.3726 93.4998 80.3726C91.9754 80.3726 90.832 79.2331 90.832 77.7136C90.832 76.1942 91.9754 75.0547 93.4998 75.0547C94.8972 75.0547 96.1676 76.3209 96.1676 77.7136Z" fill="white"/>
<path d="M118.908 77.7136C118.908 79.2331 117.765 80.3726 116.24 80.3726C114.716 80.3726 113.572 79.2331 113.572 77.7136C113.572 76.1942 114.716 75.0547 116.24 75.0547C117.765 75.0547 118.908 76.3209 118.908 77.7136Z" fill="white"/>
<path d="M141.52 77.7136C141.52 79.2331 140.377 80.3726 138.852 80.3726C137.328 80.3726 136.185 79.2331 136.185 77.7136C136.185 76.1942 137.328 75.0547 138.852 75.0547C140.377 75.0547 141.52 76.3209 141.52 77.7136Z" fill="white"/>
<path d="M5.3356 96.4773C5.3356 97.9967 4.19226 99.1363 2.6678 99.1363C1.14334 99.1363 0 97.9967 0 96.4773C0 94.9579 1.14334 93.8184 2.6678 93.8184C4.19226 93.8184 5.3356 94.9579 5.3356 96.4773Z" fill="white"/>
<path d="M28.0753 96.4773C28.0753 97.9967 26.932 99.1363 25.4075 99.1363C23.8831 99.1363 22.7397 97.9967 22.7397 96.4773C22.7397 94.9579 23.8831 93.8184 25.4075 93.8184C26.805 93.8184 28.0753 94.9579 28.0753 96.4773Z" fill="white"/>
<path d="M50.6881 96.4773C50.6881 97.9967 49.5448 99.1363 48.0203 99.1363C46.4959 99.1363 45.3525 97.9967 45.3525 96.4773C45.3525 94.9579 46.4959 93.8184 48.0203 93.8184C49.5448 93.8184 50.6881 94.9579 50.6881 96.4773Z" fill="white"/>
<path d="M70.7601 99.1363C72.2335 99.1363 73.4279 97.9458 73.4279 96.4773C73.4279 95.0088 72.2335 93.8184 70.7601 93.8184C69.2867 93.8184 68.0923 95.0088 68.0923 96.4773C68.0923 97.9458 69.2867 99.1363 70.7601 99.1363Z" fill="white"/>
<path d="M96.1676 96.4773C96.1676 97.9967 95.0243 99.1363 93.4998 99.1363C91.9754 99.1363 90.832 97.9967 90.832 96.4773C90.832 94.9579 91.9754 93.8184 93.4998 93.8184C94.8972 93.8184 96.1676 94.9579 96.1676 96.4773Z" fill="white"/>
<path d="M118.908 96.4773C118.908 97.9967 117.765 99.1363 116.24 99.1363C114.716 99.1363 113.572 97.9967 113.572 96.4773C113.572 94.9579 114.716 93.8184 116.24 93.8184C117.765 93.8184 118.908 94.9579 118.908 96.4773Z" fill="white"/>
<path d="M141.52 96.4773C141.52 97.9967 140.377 99.1363 138.852 99.1363C137.328 99.1363 136.185 97.9967 136.185 96.4773C136.185 94.9579 137.328 93.8184 138.852 93.8184C140.377 93.8184 141.52 94.9579 141.52 96.4773Z" fill="white"/>
<path d="M5.3356 115.241C5.3356 116.76 4.19226 117.9 2.6678 117.9C1.14334 117.9 0 116.76 0 115.241C0 113.722 1.14334 112.582 2.6678 112.582C4.19226 112.582 5.3356 113.722 5.3356 115.241Z" fill="white"/>
<path d="M28.0753 115.241C28.0753 116.76 26.932 117.9 25.4075 117.9C23.8831 117.9 22.7397 116.76 22.7397 115.241C22.7397 113.722 23.8831 112.582 25.4075 112.582C26.805 112.582 28.0753 113.722 28.0753 115.241Z" fill="white"/>
<path d="M50.6881 115.241C50.6881 116.76 49.5448 117.9 48.0203 117.9C46.4959 117.9 45.3525 116.76 45.3525 115.241C45.3525 113.722 46.4959 112.582 48.0203 112.582C49.5448 112.582 50.6881 113.722 50.6881 115.241Z" fill="white"/>
<path d="M73.4279 115.241C73.4279 116.76 72.2845 117.9 70.7601 117.9C69.2356 117.9 68.0923 116.76 68.0923 115.241C68.0923 113.722 69.2356 112.582 70.7601 112.582C72.2845 112.582 73.4279 113.722 73.4279 115.241Z" fill="white"/>
<path d="M96.1676 115.241C96.1676 116.76 95.0243 117.9 93.4998 117.9C91.9754 117.9 90.832 116.76 90.832 115.241C90.832 113.722 91.9754 112.582 93.4998 112.582C94.8972 112.582 96.1676 113.722 96.1676 115.241Z" fill="white"/>
<path d="M118.908 115.241C118.908 116.76 117.765 117.9 116.24 117.9C114.716 117.9 113.572 116.76 113.572 115.241C113.572 113.722 114.716 112.582 116.24 112.582C117.765 112.582 118.908 113.722 118.908 115.241Z" fill="white"/>
<path d="M141.52 115.241C141.52 116.76 140.377 117.9 138.852 117.9C137.328 117.9 136.185 116.76 136.185 115.241C136.185 113.722 137.328 112.582 138.852 112.582C140.377 112.582 141.52 113.722 141.52 115.241Z" fill="white"/>
<path d="M5.3356 134.005C5.3356 135.524 4.19226 136.664 2.6678 136.664C1.14334 136.664 0 135.524 0 134.005C0 132.485 1.14334 131.346 2.6678 131.346C4.19226 131.346 5.3356 132.612 5.3356 134.005Z" fill="white"/>
<path d="M28.0753 134.005C28.0753 135.524 26.932 136.664 25.4075 136.664C23.8831 136.664 22.7397 135.524 22.7397 134.005C22.7397 132.485 23.8831 131.346 25.4075 131.346C26.805 131.346 28.0753 132.612 28.0753 134.005Z" fill="white"/>
<path d="M50.6881 134.005C50.6881 135.524 49.5448 136.664 48.0203 136.664C46.4959 136.664 45.3525 135.524 45.3525 134.005C45.3525 132.485 46.4959 131.346 48.0203 131.346C49.5448 131.346 50.6881 132.612 50.6881 134.005Z" fill="white"/>
<path d="M73.4279 134.005C73.4279 135.524 72.2845 136.664 70.7601 136.664C69.2356 136.664 68.0923 135.524 68.0923 134.005C68.0923 132.485 69.2356 131.346 70.7601 131.346C72.2845 131.346 73.4279 132.612 73.4279 134.005Z" fill="white"/>
<path d="M96.1676 134.005C96.1676 135.524 95.0243 136.664 93.4998 136.664C91.9754 136.664 90.832 135.524 90.832 134.005C90.832 132.485 91.9754 131.346 93.4998 131.346C94.8972 131.346 96.1676 132.612 96.1676 134.005Z" fill="white"/>
<path d="M118.908 134.005C118.908 135.524 117.765 136.664 116.24 136.664C114.716 136.664 113.572 135.524 113.572 134.005C113.572 132.485 114.716 131.346 116.24 131.346C117.765 131.346 118.908 132.612 118.908 134.005Z" fill="white"/>
<path d="M141.52 134.005C141.52 135.524 140.377 136.664 138.852 136.664C137.328 136.664 136.185 135.524 136.185 134.005C136.185 132.485 137.328 131.346 138.852 131.346C140.377 131.346 141.52 132.612 141.52 134.005Z" fill="white"/>
</g>
<defs>
<clipPath id="clip0_2234_8808">
<rect width="187" height="137" fill="white"/>
</clipPath>
</defs>
</svg>
