<?xml version="1.0" encoding="UTF-8"?>
<svg xmlns="http://www.w3.org/2000/svg" xmlns:xlink="http://www.w3.org/1999/xlink" width="30px" height="21px" viewBox="0 0 29 21" version="1.1">
<g id="surface1">
<path style=" stroke:none;fill-rule:nonzero;fill:rgb(0%,0%,0%);fill-opacity:1;" d="M 13.941406 13.820312 L 15.058594 13.820312 L 15.058594 15.488281 L 13.941406 15.488281 Z M 4.363281 1.546875 L 5.226562 1.546875 L 5.226562 0.855469 C 5.226562 0.390625 5.59375 0.0117188 6.042969 0.0117188 C 6.492188 0.0117188 6.859375 0.394531 6.859375 0.855469 L 6.859375 1.546875 L 22.171875 1.546875 L 22.171875 0.855469 C 22.171875 0.390625 22.539062 0.0117188 22.988281 0.0117188 C 23.4375 0.0117188 23.804688 0.394531 23.804688 0.855469 L 23.804688 1.546875 L 24.667969 1.546875 C 24.894531 1.546875 25.101562 1.640625 25.246094 1.792969 L 25.308594 1.871094 C 25.421875 2.015625 25.488281 2.195312 25.488281 2.390625 L 25.488281 8.964844 C 25.488281 9.195312 25.394531 9.410156 25.246094 9.5625 C 25.101562 9.714844 24.894531 9.808594 24.667969 9.808594 L 23.804688 9.808594 L 23.804688 12.0625 L 23.832031 12.0625 C 24.019531 12.0625 24.183594 12.175781 24.265625 12.339844 L 28.929688 20.21875 C 29.070312 20.457031 28.996094 20.765625 28.765625 20.910156 C 28.6875 20.960938 28.597656 20.984375 28.511719 20.988281 L 0.488281 20.988281 C 0.21875 20.988281 0 20.761719 0 20.480469 C 0 20.375 0.03125 20.277344 0.0859375 20.195312 L 4.433594 12.320312 C 4.523438 12.160156 4.6875 12.066406 4.855469 12.066406 L 5.226562 12.066406 L 5.226562 9.808594 L 4.363281 9.808594 C 4.140625 9.808594 3.933594 9.714844 3.785156 9.558594 C 3.628906 9.402344 3.542969 9.1875 3.542969 8.964844 L 3.542969 2.390625 C 3.542969 2.160156 3.636719 1.949219 3.785156 1.796875 L 3.785156 1.792969 C 3.933594 1.640625 4.140625 1.546875 4.363281 1.546875 Z M 23.804688 13.496094 L 23.804688 16.957031 L 22.171875 16.957031 L 22.171875 13.074219 L 6.859375 13.074219 L 6.859375 16.957031 L 5.226562 16.957031 L 5.226562 13.074219 L 5.140625 13.074219 L 1.332031 19.976562 L 27.640625 19.976562 Z M 22.171875 12.066406 L 22.171875 9.808594 L 6.859375 9.808594 L 6.859375 12.066406 Z M 13.941406 16.808594 L 15.058594 16.808594 L 15.058594 18.960938 L 13.941406 18.960938 Z M 13.941406 16.808594 "/>
<path style=" stroke:none;fill-rule:evenodd;fill:rgb(93.72549%,25.490196%,21.176471%);fill-opacity:1;" d="M 4.347656 2.195312 L 24.652344 2.195312 C 24.757812 2.195312 24.84375 2.285156 24.84375 2.390625 L 24.84375 8.964844 C 24.84375 9.070312 24.757812 9.15625 24.652344 9.15625 L 4.347656 9.15625 C 4.242188 9.15625 4.15625 9.070312 4.15625 8.964844 L 4.15625 2.390625 C 4.15625 2.285156 4.242188 2.195312 4.347656 2.195312 Z M 4.347656 2.195312 "/>
<path style=" stroke:none;fill-rule:nonzero;fill:rgb(100%,100%,100%);fill-opacity:1;" d="M 9.0625 6.070312 L 8.257812 6.070312 L 8.257812 7.203125 L 7.3125 7.203125 L 7.3125 4.152344 L 9.25 4.152344 L 9.132812 4.839844 L 8.257812 4.839844 L 8.257812 5.433594 L 9.0625 5.433594 Z M 9.710938 7.203125 L 9.710938 4.152344 L 10.65625 4.152344 L 10.65625 7.203125 Z M 13.042969 7.203125 L 12.320312 6.121094 C 12.296875 6.082031 12.28125 6.003906 12.273438 5.886719 L 12.253906 5.886719 L 12.253906 7.203125 L 11.308594 7.203125 L 11.308594 4.152344 L 12.199219 4.152344 L 12.921875 5.234375 C 12.945312 5.269531 12.960938 5.347656 12.96875 5.46875 L 12.988281 5.46875 L 12.988281 4.152344 L 13.933594 4.152344 L 13.933594 7.203125 Z M 14.585938 7.203125 L 14.585938 4.152344 L 15.53125 4.152344 L 15.53125 7.203125 Z M 16.0625 7.148438 L 16.195312 6.433594 C 16.484375 6.511719 16.746094 6.546875 16.976562 6.546875 C 17.210938 6.546875 17.394531 6.539062 17.539062 6.519531 L 17.539062 6.183594 L 17.113281 6.144531 C 16.726562 6.109375 16.464844 6.011719 16.320312 5.859375 C 16.175781 5.703125 16.105469 5.476562 16.105469 5.171875 C 16.105469 4.753906 16.191406 4.46875 16.367188 4.3125 C 16.542969 4.15625 16.839844 4.078125 17.257812 4.078125 C 17.679688 4.078125 18.054688 4.117188 18.394531 4.199219 L 18.277344 4.890625 C 17.984375 4.839844 17.746094 4.816406 17.570312 4.816406 C 17.394531 4.816406 17.246094 4.824219 17.121094 4.839844 L 17.121094 5.171875 L 17.460938 5.207031 C 17.875 5.25 18.160156 5.351562 18.320312 5.511719 C 18.476562 5.671875 18.554688 5.894531 18.554688 6.183594 C 18.554688 6.386719 18.527344 6.5625 18.472656 6.703125 C 18.421875 6.84375 18.355469 6.953125 18.28125 7.023438 C 18.207031 7.097656 18.105469 7.15625 17.96875 7.195312 C 17.832031 7.234375 17.714844 7.257812 17.609375 7.265625 C 17.507812 7.273438 17.371094 7.277344 17.203125 7.277344 C 16.792969 7.277344 16.414062 7.234375 16.0625 7.148438 Z M 20.742188 7.203125 L 20.742188 6.214844 L 20.035156 6.214844 L 20.035156 7.203125 L 19.085938 7.203125 L 19.085938 4.152344 L 20.035156 4.152344 L 20.035156 5.140625 L 20.742188 5.140625 L 20.742188 4.152344 L 21.6875 4.152344 L 21.6875 7.203125 Z M 20.742188 7.203125 "/>
</g>
</svg>
