<svg width="134" height="182" viewBox="0 0 134 182" fill="none" xmlns="http://www.w3.org/2000/svg">
<g opacity="0.8" clip-path="url(#clip0_2234_9590)">
<path d="M39.4683 176.695C40.9405 176.695 42.0446 177.802 42.0446 179.279C42.0446 180.756 40.9405 181.864 39.4683 181.864C37.9962 181.864 36.8921 180.756 36.8921 179.279C36.8921 177.802 38.1189 176.695 39.4683 176.695Z" fill="#FFCF2D"/>
<path d="M39.4683 154.662C40.9405 154.662 42.0446 155.77 42.0446 157.247C42.0446 158.724 40.9405 159.832 39.4683 159.832C37.9962 159.832 36.8921 158.724 36.8921 157.247C36.8921 155.893 38.1189 154.662 39.4683 154.662Z" fill="#FFCF2D"/>
<path d="M39.4683 132.753C40.9405 132.753 42.0446 133.861 42.0446 135.338C42.0446 136.815 40.9405 137.923 39.4683 137.923C37.9962 137.923 36.8921 136.815 36.8921 135.338C36.8921 133.861 38.1189 132.753 39.4683 132.753Z" fill="#FFCF2D"/>
<path d="M39.4683 110.72C40.9405 110.72 42.0446 111.828 42.0446 113.305C42.0446 114.782 40.9405 115.89 39.4683 115.89C37.9962 115.89 36.8921 114.782 36.8921 113.305C36.8921 111.828 38.1189 110.72 39.4683 110.72Z" fill="#FFCF2D"/>
<path d="M39.4683 88.6878C40.9405 88.6878 42.0446 89.7956 42.0446 91.2726C42.0446 92.7496 40.9405 93.8574 39.4683 93.8574C37.9962 93.8574 36.8921 92.7496 36.8921 91.2726C36.8921 89.9186 38.1189 88.6878 39.4683 88.6878Z" fill="#FFCF2D"/>
<path d="M39.4683 66.6546C40.9405 66.6546 42.0446 67.7624 42.0446 69.2394C42.0446 70.7164 40.9405 71.8242 39.4683 71.8242C37.9962 71.8242 36.8921 70.7164 36.8921 69.2394C36.8921 67.7624 38.1189 66.6546 39.4683 66.6546Z" fill="#FFCF2D"/>
<path d="M39.4683 44.7464C40.9405 44.7464 42.0446 45.8541 42.0446 47.3312C42.0446 48.8082 40.9405 49.916 39.4683 49.916C37.9962 49.916 36.8921 48.8082 36.8921 47.3312C36.8921 45.8541 38.1189 44.7464 39.4683 44.7464Z" fill="#FFCF2D"/>
<path d="M39.4683 22.7132C40.9405 22.7132 42.0446 23.821 42.0446 25.298C42.0446 26.775 40.9405 27.8828 39.4683 27.8828C37.9962 27.8828 36.8921 26.775 36.8921 25.298C36.8921 23.821 38.1189 22.7132 39.4683 22.7132Z" fill="#FFCF2D"/>
<path d="M39.4683 0.680969C40.9405 0.680969 42.0446 1.78873 42.0446 3.26577C42.0446 4.7428 40.9405 5.85059 39.4683 5.85059C37.9962 5.85059 36.8921 4.7428 36.8921 3.26577C36.8921 1.91182 38.1189 0.680969 39.4683 0.680969Z" fill="#FFCF2D"/>
<path d="M57.7477 176.695C59.2198 176.695 60.3239 177.802 60.3239 179.279C60.3239 180.756 59.2198 181.864 57.7477 181.864C56.2755 181.864 55.1714 180.756 55.1714 179.279C55.1714 177.802 56.2755 176.695 57.7477 176.695Z" fill="#FFCF2D"/>
<path d="M57.7477 154.662C59.2198 154.662 60.3239 155.77 60.3239 157.247C60.3239 158.724 59.2198 159.832 57.7477 159.832C56.2755 159.832 55.1714 158.724 55.1714 157.247C55.1714 155.893 56.2755 154.662 57.7477 154.662Z" fill="#FFCF2D"/>
<path d="M57.7477 132.753C59.2198 132.753 60.3239 133.861 60.3239 135.338C60.3239 136.815 59.2198 137.923 57.7477 137.923C56.2755 137.923 55.1714 136.815 55.1714 135.338C55.1714 133.861 56.2755 132.753 57.7477 132.753Z" fill="#FFCF2D"/>
<path d="M57.7477 110.72C59.2198 110.72 60.3239 111.828 60.3239 113.305C60.3239 114.782 59.2198 115.89 57.7477 115.89C56.2755 115.89 55.1714 114.782 55.1714 113.305C55.1714 111.828 56.2755 110.72 57.7477 110.72Z" fill="#FFCF2D"/>
<path d="M57.7477 88.6878C59.2198 88.6878 60.3239 89.7956 60.3239 91.2726C60.3239 92.7496 59.2198 93.8574 57.7477 93.8574C56.2755 93.8574 55.1714 92.7496 55.1714 91.2726C55.1714 89.9186 56.2755 88.6878 57.7477 88.6878Z" fill="#FFCF2D"/>
<path d="M57.7477 66.6546C59.2198 66.6546 60.3239 67.7624 60.3239 69.2394C60.3239 70.7164 59.2198 71.8242 57.7477 71.8242C56.2755 71.8242 55.1714 70.7164 55.1714 69.2394C55.1714 67.7624 56.2755 66.6546 57.7477 66.6546Z" fill="#FFCF2D"/>
<path d="M57.7477 44.7464C59.2198 44.7464 60.3239 45.8542 60.3239 47.3312C60.3239 48.8082 59.2198 49.916 57.7477 49.916C56.2755 49.916 55.1714 48.8082 55.1714 47.3312C55.1714 45.8542 56.2755 44.7464 57.7477 44.7464Z" fill="#FFCF2D"/>
<path d="M57.7477 22.7132C59.2198 22.7132 60.3239 23.821 60.3239 25.298C60.3239 26.775 59.2198 27.8828 57.7477 27.8828C56.2755 27.8828 55.1714 26.775 55.1714 25.298C55.1714 23.821 56.2755 22.7132 57.7477 22.7132Z" fill="#FFCF2D"/>
<path d="M57.7477 0.680954C59.2198 0.680954 60.3239 1.78872 60.3239 3.26576C60.3239 4.7428 59.2198 5.85059 57.7477 5.85059C56.2755 5.85059 55.1714 4.7428 55.1714 3.26576C55.1714 1.91181 56.2755 0.680954 57.7477 0.680954Z" fill="#FFCF2D"/>
<path d="M3.0328 176.695C4.50495 176.695 5.60906 177.802 5.60906 179.279C5.60906 180.756 4.50495 181.864 3.0328 181.864C1.56065 181.864 0.456543 180.756 0.456543 179.279C0.456543 177.802 1.56065 176.695 3.0328 176.695Z" fill="#FFCF2D"/>
<path d="M3.0328 154.662C4.50495 154.662 5.60906 155.77 5.60906 157.247C5.60906 158.724 4.50495 159.832 3.0328 159.832C1.56065 159.832 0.456543 158.724 0.456543 157.247C0.456543 155.893 1.56065 154.662 3.0328 154.662Z" fill="#FFCF2D"/>
<path d="M3.0328 132.753C4.50495 132.753 5.60906 133.861 5.60906 135.338C5.60906 136.815 4.50495 137.923 3.0328 137.923C1.56065 137.923 0.456543 136.692 0.456543 135.338C0.456543 133.861 1.56065 132.753 3.0328 132.753Z" fill="#FFCF2D"/>
<path d="M3.0328 110.72C4.50495 110.72 5.60906 111.828 5.60906 113.305C5.60906 114.782 4.50495 115.89 3.0328 115.89C1.56065 115.89 0.456543 114.659 0.456543 113.305C0.456543 111.951 1.56065 110.72 3.0328 110.72Z" fill="#FFCF2D"/>
<path d="M3.0328 88.6878C4.50495 88.6878 5.60906 89.7956 5.60906 91.2726C5.60906 92.7496 4.50495 93.8574 3.0328 93.8574C1.56065 93.8574 0.456543 92.7496 0.456543 91.2726C0.456543 89.9186 1.56065 88.6878 3.0328 88.6878Z" fill="#FFCF2D"/>
<path d="M3.0328 66.6546C4.50495 66.6546 5.60906 67.7624 5.60906 69.2394C5.60906 70.7164 4.50495 71.8242 3.0328 71.8242C1.56065 71.8242 0.456543 70.7164 0.456543 69.2394C0.456543 67.7624 1.56065 66.6546 3.0328 66.6546Z" fill="#FFCF2D"/>
<path d="M3.0328 44.7464C4.50495 44.7464 5.60906 45.8542 5.60906 47.3312C5.60906 48.8082 4.50495 49.916 3.0328 49.916C1.56065 49.916 0.456543 48.8082 0.456543 47.3312C0.456543 45.8542 1.56065 44.7464 3.0328 44.7464Z" fill="#FFCF2D"/>
<path d="M3.0328 22.7132C4.50495 22.7132 5.60906 23.821 5.60906 25.298C5.60906 26.775 4.50495 27.8828 3.0328 27.8828C1.56065 27.8828 0.456543 26.775 0.456543 25.298C0.456543 23.821 1.56065 22.7132 3.0328 22.7132Z" fill="#FFCF2D"/>
<path d="M3.0328 0.680969C4.50495 0.680969 5.60906 1.78873 5.60906 3.26577C5.60906 4.7428 4.50495 5.85059 3.0328 5.85059C1.56065 5.85059 0.456543 4.7428 0.456543 3.26577C0.456543 1.91182 1.56065 0.680969 3.0328 0.680969Z" fill="#FFCF2D"/>
<path d="M21.3121 176.695C22.7843 176.695 23.8884 177.802 23.8884 179.279C23.8884 180.756 22.6616 181.864 21.3121 181.864C19.84 181.864 18.7358 180.756 18.7358 179.279C18.7358 177.802 19.84 176.695 21.3121 176.695Z" fill="#FFCF2D"/>
<path d="M21.3121 154.662C22.7842 154.662 23.8884 155.77 23.8884 157.247C23.8884 158.724 22.7842 159.832 21.3121 159.832C19.84 159.832 18.7358 158.724 18.7358 157.247C18.7358 155.893 19.84 154.662 21.3121 154.662Z" fill="#FFCF2D"/>
<path d="M21.3121 132.753C22.7842 132.753 23.8884 133.861 23.8884 135.338C23.8884 136.815 22.7842 137.923 21.3121 137.923C19.84 137.923 18.7358 136.815 18.7358 135.338C18.7358 133.861 19.84 132.753 21.3121 132.753Z" fill="#FFCF2D"/>
<path d="M21.3121 110.72C22.7842 110.72 23.8884 111.828 23.8884 113.305C23.8884 114.782 22.7842 115.89 21.3121 115.89C19.84 115.89 18.7358 114.782 18.7358 113.305C18.7358 111.828 19.84 110.72 21.3121 110.72Z" fill="#FFCF2D"/>
<path d="M21.3121 88.6878C22.7843 88.6878 23.8884 89.7956 23.8884 91.2726C23.8884 92.7496 22.7843 93.8574 21.3121 93.8574C19.84 93.8574 18.7358 92.7496 18.7358 91.2726C18.7358 89.9186 19.84 88.6878 21.3121 88.6878Z" fill="#FFCF2D"/>
<path d="M21.3121 66.6546C22.7842 66.6546 23.8884 67.7624 23.8884 69.2394C23.8884 70.7164 22.7842 71.8242 21.3121 71.8242C19.84 71.8242 18.7358 70.7164 18.7358 69.2394C18.7358 67.7624 19.84 66.6546 21.3121 66.6546Z" fill="#FFCF2D"/>
<path d="M21.3121 44.7464C22.7842 44.7464 23.8884 45.8542 23.8884 47.3312C23.8884 48.8082 22.7842 49.916 21.3121 49.916C19.84 49.916 18.7358 48.8082 18.7358 47.3312C18.7358 45.8542 19.84 44.7464 21.3121 44.7464Z" fill="#FFCF2D"/>
<path d="M21.3121 22.7132C22.7842 22.7132 23.8884 23.821 23.8884 25.298C23.8884 26.775 22.7842 27.8828 21.3121 27.8828C19.84 27.8828 18.7358 26.775 18.7358 25.298C18.7358 23.821 19.84 22.7132 21.3121 22.7132Z" fill="#FFCF2D"/>
<path d="M21.3121 0.680954C22.7842 0.680954 23.8884 1.78872 23.8884 3.26576C23.8884 4.7428 22.7842 5.85059 21.3121 5.85059C19.84 5.85059 18.7358 4.7428 18.7358 3.26576C18.7358 1.91181 19.84 0.680954 21.3121 0.680954Z" fill="#FFCF2D"/>
<path d="M75.9044 176.695C77.3765 176.695 78.4806 177.802 78.4806 179.279C78.4806 180.756 77.3765 181.864 75.9044 181.864C74.4322 181.864 73.3281 180.756 73.3281 179.279C73.3281 177.802 74.5549 176.695 75.9044 176.695Z" fill="#FFCF2D"/>
<path d="M75.9044 154.662C77.3765 154.662 78.4806 155.77 78.4806 157.247C78.4806 158.724 77.3765 159.832 75.9044 159.832C74.4322 159.832 73.3281 158.724 73.3281 157.247C73.3281 155.893 74.5549 154.662 75.9044 154.662Z" fill="#FFCF2D"/>
<path d="M75.9044 132.753C77.3765 132.753 78.4806 133.861 78.4806 135.338C78.4806 136.815 77.3765 137.923 75.9044 137.923C74.4322 137.923 73.3281 136.815 73.3281 135.338C73.3281 133.861 74.5549 132.753 75.9044 132.753Z" fill="#FFCF2D"/>
<path d="M75.9044 110.72C77.3765 110.72 78.4806 111.828 78.4806 113.305C78.4806 114.782 77.3765 115.89 75.9044 115.89C74.4322 115.89 73.3281 114.782 73.3281 113.305C73.3281 111.828 74.5549 110.72 75.9044 110.72Z" fill="#FFCF2D"/>
<path d="M75.9044 88.6878C77.3765 88.6878 78.4806 89.7956 78.4806 91.2726C78.4806 92.7496 77.3765 93.8574 75.9044 93.8574C74.4322 93.8574 73.3281 92.7496 73.3281 91.2726C73.3281 89.9186 74.5549 88.6878 75.9044 88.6878Z" fill="#FFCF2D"/>
<path d="M75.9044 66.6546C77.3765 66.6546 78.4806 67.7624 78.4806 69.2394C78.4806 70.7164 77.3765 71.8242 75.9044 71.8242C74.4322 71.8242 73.3281 70.7164 73.3281 69.2394C73.3281 67.7624 74.5549 66.6546 75.9044 66.6546Z" fill="#FFCF2D"/>
<path d="M75.9044 44.7464C77.3765 44.7464 78.4806 45.8541 78.4806 47.3312C78.4806 48.8082 77.3765 49.916 75.9044 49.916C74.4322 49.916 73.3281 48.8082 73.3281 47.3312C73.3281 45.8541 74.5549 44.7464 75.9044 44.7464Z" fill="#FFCF2D"/>
<path d="M75.9044 22.7132C77.3765 22.7132 78.4806 23.821 78.4806 25.298C78.4806 26.775 77.3765 27.8828 75.9044 27.8828C74.4322 27.8828 73.3281 26.775 73.3281 25.298C73.3281 23.821 74.5549 22.7132 75.9044 22.7132Z" fill="#FFCF2D"/>
<path d="M75.9044 0.680954C77.3765 0.680954 78.4806 1.78872 78.4806 3.26576C78.4806 4.7428 77.3765 5.85059 75.9044 5.85059C74.4322 5.85059 73.3281 4.7428 73.3281 3.26576C73.3281 1.91181 74.5549 0.680954 75.9044 0.680954Z" fill="#FFCF2D"/>
<path d="M94.1832 176.695C95.6553 176.695 96.7594 177.802 96.7594 179.279C96.7594 180.756 95.6553 181.864 94.1832 181.864C92.711 181.864 91.6069 180.756 91.6069 179.279C91.6069 177.802 92.711 176.695 94.1832 176.695Z" fill="#FFCF2D"/>
<path d="M94.1832 154.662C95.6553 154.662 96.7594 155.77 96.7594 157.247C96.7594 158.724 95.6553 159.832 94.1832 159.832C92.711 159.832 91.6069 158.724 91.6069 157.247C91.6069 155.893 92.711 154.662 94.1832 154.662Z" fill="#FFCF2D"/>
<path d="M94.1832 132.753C95.6553 132.753 96.7594 133.861 96.7594 135.338C96.7594 136.815 95.6553 137.923 94.1832 137.923C92.711 137.923 91.6069 136.815 91.6069 135.338C91.6069 133.861 92.711 132.753 94.1832 132.753Z" fill="#FFCF2D"/>
<path d="M96.7594 113.305C96.7594 111.877 95.606 110.72 94.1832 110.72C92.7604 110.72 91.6069 111.877 91.6069 113.305C91.6069 114.732 92.7604 115.89 94.1832 115.89C95.606 115.89 96.7594 114.732 96.7594 113.305Z" fill="#FFCF2D"/>
<path d="M94.1832 88.6878C95.6553 88.6878 96.7594 89.7956 96.7594 91.2726C96.7594 92.7496 95.6553 93.8574 94.1832 93.8574C92.711 93.8574 91.6069 92.7496 91.6069 91.2726C91.6069 89.9186 92.711 88.6878 94.1832 88.6878Z" fill="#FFCF2D"/>
<path d="M94.1832 66.6546C95.6553 66.6546 96.7594 67.7624 96.7594 69.2394C96.7594 70.7164 95.6553 71.8242 94.1832 71.8242C92.711 71.8242 91.6069 70.7164 91.6069 69.2394C91.6069 67.7624 92.711 66.6546 94.1832 66.6546Z" fill="#FFCF2D"/>
<path d="M94.1832 44.7464C95.6553 44.7464 96.7594 45.8541 96.7594 47.3312C96.7594 48.8082 95.6553 49.916 94.1832 49.916C92.711 49.916 91.6069 48.8082 91.6069 47.3312C91.6069 45.8541 92.711 44.7464 94.1832 44.7464Z" fill="#FFCF2D"/>
<path d="M96.7594 25.298C96.7594 23.8704 95.606 22.7132 94.1832 22.7132C92.7604 22.7132 91.6069 23.8704 91.6069 25.298C91.6069 26.7256 92.7604 27.8828 94.1832 27.8828C95.606 27.8828 96.7594 26.7256 96.7594 25.298Z" fill="#FFCF2D"/>
<path d="M94.1832 0.680954C95.6553 0.680954 96.7594 1.78872 96.7594 3.26576C96.7594 4.7428 95.6553 5.85059 94.1832 5.85059C92.711 5.85059 91.6069 4.7428 91.6069 3.26576C91.6069 1.91181 92.711 0.680954 94.1832 0.680954Z" fill="#FFCF2D"/>
<path d="M112.462 176.695C113.935 176.695 115.039 177.802 115.039 179.279C115.039 180.756 113.935 181.864 112.462 181.864C110.99 181.864 109.886 180.756 109.886 179.279C109.886 177.802 110.99 176.695 112.462 176.695Z" fill="#FFCF2D"/>
<path d="M112.463 154.662C113.935 154.662 115.039 155.77 115.039 157.247C115.039 158.724 113.935 159.832 112.463 159.832C110.99 159.832 109.886 158.724 109.886 157.247C109.886 155.893 110.99 154.662 112.463 154.662Z" fill="#FFCF2D"/>
<path d="M112.462 132.753C113.935 132.753 115.039 133.861 115.039 135.338C115.039 136.815 113.935 137.923 112.462 137.923C110.99 137.923 109.886 136.815 109.886 135.338C109.886 133.861 110.99 132.753 112.462 132.753Z" fill="#FFCF2D"/>
<path d="M112.463 110.72C113.935 110.72 115.039 111.828 115.039 113.305C115.039 114.782 113.935 115.89 112.463 115.89C110.99 115.89 109.886 114.782 109.886 113.305C109.886 111.828 110.99 110.72 112.463 110.72Z" fill="#FFCF2D"/>
<path d="M112.462 88.6878C113.935 88.6878 115.039 89.7956 115.039 91.2726C115.039 92.7496 113.935 93.8574 112.462 93.8574C110.99 93.8574 109.886 92.7496 109.886 91.2726C109.886 89.9186 110.99 88.6878 112.462 88.6878Z" fill="#FFCF2D"/>
<path d="M112.463 66.6546C113.935 66.6546 115.039 67.7624 115.039 69.2394C115.039 70.7164 113.935 71.8242 112.463 71.8242C110.99 71.8242 109.886 70.7164 109.886 69.2394C109.886 67.7624 110.99 66.6546 112.463 66.6546Z" fill="#FFCF2D"/>
<path d="M112.462 44.7464C113.935 44.7464 115.039 45.8542 115.039 47.3312C115.039 48.8082 113.935 49.916 112.462 49.916C110.99 49.916 109.886 48.8082 109.886 47.3312C109.886 45.8542 110.99 44.7464 112.462 44.7464Z" fill="#FFCF2D"/>
<path d="M112.462 22.7132C113.935 22.7132 115.039 23.821 115.039 25.298C115.039 26.775 113.935 27.8828 112.462 27.8828C110.99 27.8828 109.886 26.775 109.886 25.298C109.886 23.821 110.99 22.7132 112.462 22.7132Z" fill="#FFCF2D"/>
<path d="M112.463 0.680954C113.935 0.680954 115.039 1.78872 115.039 3.26576C115.039 4.7428 113.935 5.85059 112.463 5.85059C110.99 5.85059 109.886 4.7428 109.886 3.26576C109.886 1.91181 110.99 0.680954 112.463 0.680954Z" fill="#FFCF2D"/>
<path d="M130.619 176.695C132.091 176.695 133.196 177.802 133.196 179.279C133.196 180.756 132.091 181.864 130.619 181.864C129.147 181.864 128.043 180.756 128.043 179.279C128.043 177.802 129.27 176.695 130.619 176.695Z" fill="#FFCF2D"/>
<path d="M130.619 154.662C132.091 154.662 133.195 155.77 133.195 157.247C133.195 158.724 132.091 159.832 130.619 159.832C129.147 159.832 128.043 158.724 128.043 157.247C128.043 155.893 129.27 154.662 130.619 154.662Z" fill="#FFCF2D"/>
<path d="M130.619 132.753C132.091 132.753 133.195 133.861 133.195 135.338C133.195 136.815 132.091 137.923 130.619 137.923C129.147 137.923 128.043 136.815 128.043 135.338C128.043 133.861 129.27 132.753 130.619 132.753Z" fill="#FFCF2D"/>
<path d="M130.619 110.72C132.091 110.72 133.195 111.828 133.195 113.305C133.195 114.782 132.091 115.89 130.619 115.89C129.147 115.89 128.043 114.782 128.043 113.305C128.043 111.828 129.27 110.72 130.619 110.72Z" fill="#FFCF2D"/>
<path d="M130.619 88.6878C132.091 88.6878 133.195 89.7956 133.195 91.2726C133.195 92.7496 132.091 93.8574 130.619 93.8574C129.147 93.8574 128.043 92.7496 128.043 91.2726C128.043 89.9187 129.27 88.6878 130.619 88.6878Z" fill="#FFCF2D"/>
<path d="M130.619 66.6546C132.091 66.6546 133.195 67.7624 133.195 69.2394C133.195 70.7164 132.091 71.8242 130.619 71.8242C129.147 71.8242 128.043 70.7164 128.043 69.2394C128.043 67.7624 129.27 66.6546 130.619 66.6546Z" fill="#FFCF2D"/>
<path d="M130.619 44.7464C132.091 44.7464 133.195 45.8541 133.195 47.3312C133.195 48.8082 132.091 49.916 130.619 49.916C129.147 49.916 128.043 48.8082 128.043 47.3312C128.043 45.8541 129.27 44.7464 130.619 44.7464Z" fill="#FFCF2D"/>
<path d="M130.619 22.7132C132.091 22.7132 133.196 23.821 133.196 25.298C133.196 26.775 132.091 27.8828 130.619 27.8828C129.147 27.8828 128.043 26.775 128.043 25.298C128.043 23.821 129.27 22.7132 130.619 22.7132Z" fill="#FFCF2D"/>
<path d="M130.619 0.680954C132.091 0.680954 133.195 1.78872 133.195 3.26576C133.195 4.7428 132.091 5.85059 130.619 5.85059C129.147 5.85059 128.043 4.7428 128.043 3.26576C128.043 1.91181 129.27 0.680954 130.619 0.680954Z" fill="#FFCF2D"/>
</g>
<defs>
<clipPath id="clip0_2234_9590">
<rect width="181.184" height="132.739" fill="white" transform="translate(0.456543 181.864) rotate(-90)"/>
</clipPath>
</defs>
</svg>
