<?xml version="1.0" encoding="utf-8"?>
<!-- Svg Vector Icons : http://www.onlinewebfonts.com/icon -->
<!DOCTYPE svg PUBLIC "-//W3C//DTD SVG 1.1//EN" "http://www.w3.org/Graphics/SVG/1.1/DTD/svg11.dtd">
<svg version="1.1" xmlns="http://www.w3.org/2000/svg" xmlns:xlink="http://www.w3.org/1999/xlink" x="0px" y="0px" viewBox="0 0 1000 1000" enable-background="new 0 0 1000 1000" xml:space="preserve">
<metadata> Svg Vector Icons : http://www.onlinewebfonts.com/icon </metadata>
<g><g><g><path d="M688.6,10c2.3,0,4.6,0,7,0c5.6,69.1-20.8,120.8-52.8,158.1c-31.5,37.1-74.5,73.2-144.2,67.7c-4.6-68.1,21.8-115.9,53.8-153.2C582,47.8,636.4,16.9,688.6,10z"/><path d="M899.5,729.3c0,0.7,0,1.3,0,1.9c-19.6,59.3-47.5,110.1-81.6,157.3C786.8,931.4,748.6,989,680.6,989c-58.8,0-97.9-37.8-158.2-38.9c-63.8-1-98.8,31.6-157.2,39.8c-6.7,0-13.3,0-19.9,0c-42.8-6.2-77.4-40.1-102.5-70.7c-74.2-90.3-131.6-206.9-142.3-356.1c0-14.6,0-29.2,0-43.9c4.5-106.8,56.4-193.7,125.4-235.7c36.4-22.4,86.5-41.4,142.2-32.9c23.9,3.7,48.3,11.9,69.7,20c20.3,7.8,45.6,21.6,69.6,20.9c16.3-0.5,32.4-9,48.8-14.9c48-17.3,95.1-37.2,157.2-27.9c74.6,11.3,127.5,44.4,160.2,95.5c-63.1,40.2-113,100.7-104.4,204C776.7,642.1,831.3,697,899.5,729.3z"/></g><g></g><g></g><g></g><g></g><g></g><g></g><g></g><g></g><g></g><g></g><g></g><g></g><g></g><g></g><g></g></g><g></g><g></g><g></g><g></g><g></g><g></g><g></g><g></g><g></g><g></g><g></g><g></g><g></g><g></g><g></g></g>
</svg>