<?xml version="1.0" encoding="UTF-8"?>
<svg xmlns="http://www.w3.org/2000/svg" xmlns:xlink="http://www.w3.org/1999/xlink" width="33px" height="22px" viewBox="0 0 33 22" version="1.1">
<g id="surface1">
<path style=" stroke:none;fill-rule:nonzero;fill:rgb(0%,0%,0%);fill-opacity:1;" d="M 4.964844 1.726562 L 5.945312 1.726562 L 5.945312 0.949219 C 5.945312 0.429688 6.363281 0.00390625 6.875 0.00390625 C 7.386719 0.00390625 7.804688 0.433594 7.804688 0.949219 L 7.804688 1.726562 L 25.230469 1.726562 L 25.230469 0.949219 C 25.230469 0.429688 25.648438 0.00390625 26.160156 0.00390625 C 26.671875 0.00390625 27.089844 0.433594 27.089844 0.949219 L 27.089844 1.726562 L 28.074219 1.726562 C 28.328125 1.726562 28.5625 1.832031 28.730469 2.003906 L 28.800781 2.085938 C 28.929688 2.25 29.003906 2.453125 29.003906 2.671875 L 29.003906 10.050781 C 29.003906 10.3125 28.898438 10.550781 28.730469 10.722656 C 28.5625 10.894531 28.328125 11 28.074219 11 L 27.089844 11 L 27.089844 21.996094 L 25.230469 21.996094 L 25.230469 11 L 7.804688 11 L 7.804688 21.996094 L 5.945312 21.996094 L 5.945312 11 L 4.964844 11 C 4.710938 11 4.476562 10.894531 4.308594 10.722656 C 4.132812 10.542969 4.03125 10.304688 4.03125 10.050781 L 4.03125 2.671875 C 4.03125 2.414062 4.136719 2.175781 4.304688 2.007812 L 4.308594 2.003906 C 4.476562 1.832031 4.707031 1.726562 4.964844 1.726562 Z M 28.613281 13.53125 C 28.492188 13.242188 28.628906 12.910156 28.914062 12.789062 C 29.195312 12.671875 29.523438 12.808594 29.640625 13.097656 L 32.957031 21.210938 C 33.074219 21.5 32.941406 21.832031 32.65625 21.953125 C 32.585938 21.980469 32.515625 21.996094 32.441406 21.996094 L 28.429688 21.996094 L 28.429688 20.859375 L 31.609375 20.859375 Z M 15.863281 12.582031 L 17.136719 12.582031 L 17.136719 14.507812 L 15.863281 14.507812 Z M 15.863281 16.300781 L 17.136719 16.300781 L 17.136719 19.222656 L 15.863281 19.222656 Z M 23.773438 21.996094 L 9.535156 21.996094 L 9.535156 20.859375 L 23.773438 20.859375 Z M 4.378906 21.996094 L 0.558594 21.996094 C 0.25 21.996094 0 21.742188 0 21.429688 C 0 21.339844 0.0195312 21.257812 0.0546875 21.183594 L 2.996094 13.117188 C 3.105469 12.824219 3.425781 12.675781 3.710938 12.785156 C 4 12.894531 4.144531 13.21875 4.039062 13.511719 L 1.355469 20.859375 L 4.378906 20.859375 Z M 4.378906 21.996094 "/>
<path style=" stroke:none;fill-rule:evenodd;fill:rgb(22.745098%,68.627451%,23.529412%);fill-opacity:1;" d="M 4.964844 2.457031 L 28.074219 2.457031 C 28.191406 2.457031 28.285156 2.554688 28.285156 2.671875 L 28.285156 10.050781 C 28.285156 10.171875 28.1875 10.269531 28.074219 10.269531 L 4.964844 10.269531 C 4.847656 10.269531 4.75 10.171875 4.75 10.050781 L 4.75 2.671875 C 4.75 2.554688 4.84375 2.457031 4.964844 2.457031 Z M 4.964844 2.457031 "/>
<path style=" stroke:none;fill-rule:nonzero;fill:rgb(100%,100%,100%);fill-opacity:1;" d="M 8.75 8.015625 L 8.902344 7.214844 C 9.230469 7.296875 9.527344 7.339844 9.792969 7.339844 C 10.054688 7.339844 10.269531 7.328125 10.429688 7.308594 L 10.429688 6.929688 L 9.945312 6.886719 C 9.507812 6.847656 9.207031 6.738281 9.042969 6.566406 C 8.878906 6.390625 8.796875 6.136719 8.796875 5.792969 C 8.796875 5.328125 8.898438 5.003906 9.097656 4.832031 C 9.296875 4.652344 9.636719 4.566406 10.113281 4.566406 C 10.589844 4.566406 11.019531 4.613281 11.402344 4.703125 L 11.269531 5.476562 C 10.9375 5.421875 10.667969 5.394531 10.46875 5.394531 C 10.265625 5.394531 10.097656 5.40625 9.957031 5.421875 L 9.957031 5.792969 L 10.34375 5.832031 C 10.8125 5.882812 11.140625 5.996094 11.316406 6.175781 C 11.496094 6.355469 11.585938 6.609375 11.585938 6.929688 C 11.585938 7.160156 11.554688 7.355469 11.496094 7.515625 C 11.433594 7.671875 11.363281 7.792969 11.277344 7.875 C 11.191406 7.957031 11.074219 8.023438 10.917969 8.066406 C 10.765625 8.109375 10.628906 8.136719 10.511719 8.144531 C 10.394531 8.15625 10.242188 8.160156 10.046875 8.160156 C 9.582031 8.160156 9.148438 8.109375 8.75 8.015625 Z M 14.589844 5.527344 L 13.808594 5.527344 L 13.808594 8.078125 L 12.730469 8.078125 L 12.730469 5.527344 L 11.949219 5.527344 L 11.949219 4.648438 L 14.589844 4.648438 Z M 15.699219 8.078125 L 14.5625 8.078125 L 15.4375 4.648438 L 17.097656 4.648438 L 17.972656 8.078125 L 16.835938 8.078125 L 16.710938 7.535156 L 15.824219 7.535156 Z M 16.136719 5.703125 L 15.917969 6.660156 L 16.613281 6.660156 L 16.398438 5.703125 Z M 21.3125 8.078125 L 20.125 8.078125 L 19.683594 7.054688 L 19.453125 7.054688 L 19.453125 8.078125 L 18.378906 8.078125 L 18.378906 4.648438 L 20.074219 4.648438 C 20.84375 4.648438 21.230469 5.050781 21.230469 5.851562 C 21.230469 6.398438 21.0625 6.761719 20.730469 6.9375 Z M 19.453125 5.421875 L 19.453125 6.3125 L 19.703125 6.3125 C 19.832031 6.3125 19.925781 6.300781 19.984375 6.273438 C 20.042969 6.246094 20.074219 6.183594 20.074219 6.082031 L 20.074219 5.65625 C 20.074219 5.554688 20.042969 5.492188 19.984375 5.464844 C 19.925781 5.4375 19.832031 5.421875 19.703125 5.421875 Z M 24.285156 5.527344 L 23.503906 5.527344 L 23.503906 8.078125 L 22.429688 8.078125 L 22.429688 5.527344 L 21.648438 5.527344 L 21.648438 4.648438 L 24.285156 4.648438 Z M 24.285156 5.527344 "/>
</g>
</svg>
